<mxfile host="app.diagrams.net" modified="2023-08-21T03:24:58.805Z" agent="Mozilla/5.0 (Windows NT 10.0; Win64; x64) AppleWebKit/537.36 (KHTML, like Gecko) Chrome/115.0.0.0 Safari/537.36 Edg/115.0.1901.203" etag="StXuMk3CVPiXSr6iNmjh" version="21.6.8" type="device">
  <diagram name="Page-1" id="_S05xoc5mDZKGc9kRCGp">
    <mxGraphModel dx="1155" dy="683" grid="1" gridSize="10" guides="1" tooltips="1" connect="1" arrows="1" fold="1" page="1" pageScale="1" pageWidth="1169" pageHeight="827" math="0" shadow="0">
      <root>
        <mxCell id="0" />
        <mxCell id="1" parent="0" />
        <mxCell id="jw2m11V_JDTPbMckJYDp-1" value="" style="group" vertex="1" connectable="0" parent="1">
          <mxGeometry x="510" y="360" width="130" height="80" as="geometry" />
        </mxCell>
        <mxCell id="iGI54hqY2ZNSKrV1da0P-2" value="" style="shape=trapezoid;perimeter=trapezoidPerimeter;whiteSpace=wrap;html=1;fixedSize=1;direction=south;size=20;" parent="jw2m11V_JDTPbMckJYDp-1" vertex="1">
          <mxGeometry x="40" width="50" height="80" as="geometry" />
        </mxCell>
        <mxCell id="iGI54hqY2ZNSKrV1da0P-3" value="reg_file" style="whiteSpace=wrap;html=1;align=left;fillColor=none;strokeColor=none;" parent="jw2m11V_JDTPbMckJYDp-1" vertex="1">
          <mxGeometry x="40" y="20" width="10" height="20" as="geometry" />
        </mxCell>
        <mxCell id="iGI54hqY2ZNSKrV1da0P-4" value="alu_out" style="whiteSpace=wrap;html=1;align=left;fillColor=none;strokeColor=none;" parent="jw2m11V_JDTPbMckJYDp-1" vertex="1">
          <mxGeometry x="40" y="40" width="10" height="20" as="geometry" />
        </mxCell>
        <mxCell id="iGI54hqY2ZNSKrV1da0P-7" value="" style="endArrow=open;html=1;rounded=0;exitX=0.5;exitY=0;exitDx=0;exitDy=0;endFill=0;" parent="jw2m11V_JDTPbMckJYDp-1" source="iGI54hqY2ZNSKrV1da0P-2" edge="1">
          <mxGeometry width="50" height="50" relative="1" as="geometry">
            <mxPoint x="30" y="50" as="sourcePoint" />
            <mxPoint x="130" y="40" as="targetPoint" />
          </mxGeometry>
        </mxCell>
        <mxCell id="iGI54hqY2ZNSKrV1da0P-8" value="" style="endArrow=open;html=1;rounded=0;exitX=0.5;exitY=0;exitDx=0;exitDy=0;endFill=0;" parent="jw2m11V_JDTPbMckJYDp-1" edge="1">
          <mxGeometry width="50" height="50" relative="1" as="geometry">
            <mxPoint y="50" as="sourcePoint" />
            <mxPoint x="40" y="50" as="targetPoint" />
          </mxGeometry>
        </mxCell>
        <mxCell id="iGI54hqY2ZNSKrV1da0P-9" value="" style="endArrow=open;html=1;rounded=0;exitX=0.5;exitY=0;exitDx=0;exitDy=0;endFill=0;" parent="jw2m11V_JDTPbMckJYDp-1" edge="1">
          <mxGeometry width="50" height="50" relative="1" as="geometry">
            <mxPoint y="30" as="sourcePoint" />
            <mxPoint x="40" y="30" as="targetPoint" />
          </mxGeometry>
        </mxCell>
        <mxCell id="jw2m11V_JDTPbMckJYDp-2" value="" style="group" vertex="1" connectable="0" parent="1">
          <mxGeometry x="510" y="240" width="130" height="80" as="geometry" />
        </mxCell>
        <mxCell id="jw2m11V_JDTPbMckJYDp-3" value="" style="shape=trapezoid;perimeter=trapezoidPerimeter;whiteSpace=wrap;html=1;fixedSize=1;direction=south;size=20;" vertex="1" parent="jw2m11V_JDTPbMckJYDp-2">
          <mxGeometry x="40" width="50" height="80" as="geometry" />
        </mxCell>
        <mxCell id="jw2m11V_JDTPbMckJYDp-4" value="reg_file" style="whiteSpace=wrap;html=1;align=left;fillColor=none;strokeColor=none;" vertex="1" parent="jw2m11V_JDTPbMckJYDp-2">
          <mxGeometry x="40" y="20" width="10" height="20" as="geometry" />
        </mxCell>
        <mxCell id="jw2m11V_JDTPbMckJYDp-5" value="alu_out" style="whiteSpace=wrap;html=1;align=left;fillColor=none;strokeColor=none;" vertex="1" parent="jw2m11V_JDTPbMckJYDp-2">
          <mxGeometry x="40" y="40" width="10" height="20" as="geometry" />
        </mxCell>
        <mxCell id="jw2m11V_JDTPbMckJYDp-6" value="" style="endArrow=open;html=1;rounded=0;exitX=0.5;exitY=0;exitDx=0;exitDy=0;endFill=0;" edge="1" parent="jw2m11V_JDTPbMckJYDp-2" source="jw2m11V_JDTPbMckJYDp-3">
          <mxGeometry width="50" height="50" relative="1" as="geometry">
            <mxPoint x="30" y="50" as="sourcePoint" />
            <mxPoint x="130" y="40" as="targetPoint" />
          </mxGeometry>
        </mxCell>
        <mxCell id="jw2m11V_JDTPbMckJYDp-7" value="" style="endArrow=open;html=1;rounded=0;exitX=0.5;exitY=0;exitDx=0;exitDy=0;endFill=0;" edge="1" parent="jw2m11V_JDTPbMckJYDp-2">
          <mxGeometry width="50" height="50" relative="1" as="geometry">
            <mxPoint y="50" as="sourcePoint" />
            <mxPoint x="40" y="50" as="targetPoint" />
          </mxGeometry>
        </mxCell>
        <mxCell id="jw2m11V_JDTPbMckJYDp-8" value="" style="endArrow=open;html=1;rounded=0;exitX=0.5;exitY=0;exitDx=0;exitDy=0;endFill=0;" edge="1" parent="jw2m11V_JDTPbMckJYDp-2">
          <mxGeometry width="50" height="50" relative="1" as="geometry">
            <mxPoint y="30" as="sourcePoint" />
            <mxPoint x="40" y="30" as="targetPoint" />
          </mxGeometry>
        </mxCell>
        <mxCell id="jw2m11V_JDTPbMckJYDp-9" value="" style="group" vertex="1" connectable="0" parent="1">
          <mxGeometry x="510" y="120" width="130" height="80" as="geometry" />
        </mxCell>
        <mxCell id="jw2m11V_JDTPbMckJYDp-10" value="" style="shape=trapezoid;perimeter=trapezoidPerimeter;whiteSpace=wrap;html=1;fixedSize=1;direction=south;size=20;" vertex="1" parent="jw2m11V_JDTPbMckJYDp-9">
          <mxGeometry x="40" width="50" height="80" as="geometry" />
        </mxCell>
        <mxCell id="jw2m11V_JDTPbMckJYDp-11" value="reg_file" style="whiteSpace=wrap;html=1;align=left;fillColor=none;strokeColor=none;" vertex="1" parent="jw2m11V_JDTPbMckJYDp-9">
          <mxGeometry x="40" y="20" width="10" height="20" as="geometry" />
        </mxCell>
        <mxCell id="jw2m11V_JDTPbMckJYDp-12" value="alu_out" style="whiteSpace=wrap;html=1;align=left;fillColor=none;strokeColor=none;" vertex="1" parent="jw2m11V_JDTPbMckJYDp-9">
          <mxGeometry x="40" y="40" width="10" height="20" as="geometry" />
        </mxCell>
        <mxCell id="jw2m11V_JDTPbMckJYDp-13" value="" style="endArrow=open;html=1;rounded=0;exitX=0.5;exitY=0;exitDx=0;exitDy=0;endFill=0;" edge="1" parent="jw2m11V_JDTPbMckJYDp-9" source="jw2m11V_JDTPbMckJYDp-10">
          <mxGeometry width="50" height="50" relative="1" as="geometry">
            <mxPoint x="30" y="50" as="sourcePoint" />
            <mxPoint x="130" y="40" as="targetPoint" />
          </mxGeometry>
        </mxCell>
        <mxCell id="jw2m11V_JDTPbMckJYDp-14" value="" style="endArrow=open;html=1;rounded=0;exitX=0.5;exitY=0;exitDx=0;exitDy=0;endFill=0;" edge="1" parent="jw2m11V_JDTPbMckJYDp-9">
          <mxGeometry width="50" height="50" relative="1" as="geometry">
            <mxPoint y="50" as="sourcePoint" />
            <mxPoint x="40" y="50" as="targetPoint" />
          </mxGeometry>
        </mxCell>
        <mxCell id="jw2m11V_JDTPbMckJYDp-15" value="" style="endArrow=open;html=1;rounded=0;exitX=0.5;exitY=0;exitDx=0;exitDy=0;endFill=0;" edge="1" parent="jw2m11V_JDTPbMckJYDp-9">
          <mxGeometry width="50" height="50" relative="1" as="geometry">
            <mxPoint y="30" as="sourcePoint" />
            <mxPoint x="40" y="30" as="targetPoint" />
          </mxGeometry>
        </mxCell>
        <mxCell id="jw2m11V_JDTPbMckJYDp-16" value="" style="endArrow=none;html=1;rounded=0;" edge="1" parent="1">
          <mxGeometry width="50" height="50" relative="1" as="geometry">
            <mxPoint x="1080" y="440" as="sourcePoint" />
            <mxPoint x="1080" y="440" as="targetPoint" />
            <Array as="points">
              <mxPoint x="1080" y="390" />
              <mxPoint x="920" y="320" />
              <mxPoint x="920" y="400" />
              <mxPoint x="1000" y="440" />
              <mxPoint x="920" y="480" />
              <mxPoint x="920" y="560" />
              <mxPoint x="1080" y="490" />
            </Array>
          </mxGeometry>
        </mxCell>
      </root>
    </mxGraphModel>
  </diagram>
</mxfile>
